<?xml version="1.0" standalone="no"?>
<!DOCTYPE svg PUBLIC "-//W3C//DTD SVG 20010904//EN"
 "http://www.w3.org/TR/2001/REC-SVG-20010904/DTD/svg10.dtd">
<svg version="1.0" xmlns="http://www.w3.org/2000/svg"
 width="308.000000pt" height="308.000000pt" viewBox="0 0 308.000000 308.000000"
 preserveAspectRatio="xMidYMid meet">

<g transform="translate(0.000000,308.000000) scale(0.100000,-0.100000)"
fill="#000000" stroke="none">
<path d="M1354 2936 c-208 -40 -352 -113 -497 -255 -87 -84 -148 -169 -201
-281 -46 -95 -47 -140 -7 -181 57 -57 128 -28 155 64 25 83 85 176 171 262
117 116 229 177 387 209 448 92 877 -238 905 -694 9 -145 -27 -315 -82 -390
-29 -40 -32 -76 -8 -110 26 -38 240 -297 300 -365 63 -70 67 -66 -87 -85 -92
-11 -108 -16 -132 -41 l-28 -27 0 -165 0 -164 -122 -12 c-250 -24 -241 -22
-270 -52 -28 -27 -28 -28 -28 -168 l0 -141 -172 0 c-95 0 -210 3 -255 7 l-83
6 0 593 0 593 23 12 c32 17 77 60 93 91 17 32 18 121 3 151 -17 32 -60 77 -91
93 -15 8 -50 14 -78 14 -28 0 -63 -6 -78 -14 -31 -16 -74 -61 -91 -93 -16 -31
-14 -119 3 -152 18 -33 76 -86 105 -96 21 -6 21 -9 21 -601 l0 -594 -95 0 -95
0 0 784 c0 777 0 785 20 791 31 10 79 54 97 88 20 39 20 115 0 153 -33 64 -85
94 -160 94 -110 0 -191 -100 -167 -207 11 -46 37 -82 83 -112 l37 -24 0 -784
0 -783 -85 0 -85 0 0 367 0 366 -140 142 -140 141 0 94 0 95 30 13 c17 8 43
30 58 50 23 30 27 45 27 101 0 53 -5 72 -23 99 -67 94 -217 94 -284 0 -18 -27
-23 -46 -23 -99 0 -56 4 -71 27 -101 15 -20 41 -42 57 -49 l29 -13 4 -113 3
-113 143 -143 142 -142 0 -347 0 -346 -30 -7 c-69 -15 -91 -95 -41 -146 l29
-29 254 0 c139 0 431 -3 650 -7 l396 -6 31 31 31 30 0 145 0 144 123 12 c249
24 240 22 269 52 l28 27 0 165 0 165 33 6 c17 3 90 13 162 22 117 16 133 20
157 45 39 39 37 76 -9 136 -20 26 -111 143 -201 258 -91 116 -169 215 -174
222 -6 7 0 37 16 81 162 449 -43 941 -483 1162 -145 73 -396 107 -557 76z
m-317 -788 c51 -48 15 -138 -56 -138 -47 0 -81 32 -81 79 0 72 84 109 137 59z
m277 -364 c19 -19 26 -37 26 -64 0 -81 -96 -121 -154 -64 -57 58 -17 154 64
154 27 0 45 -7 64 -26z m-829 -9 c50 -49 15 -135 -55 -135 -41 0 -80 39 -80
80 0 41 39 80 80 80 19 0 40 -9 55 -25z"/>
</g>
</svg>
